<?xml version="1.0" encoding="UTF-8"?>
<svg version="1.1" viewBox="0 0 93.000001 88.62948" xmlns="http://www.w3.org/2000/svg">
 <g transform="translate(-299.21 -796.62)">
  <path d="m339.36 796.62a17.986 24.981 0 0 0 -11.397 19.834l16.265 22.387v-8.874h2.9977v8.8779l16.276-22.403a17.986 24.981 0 0 0 -11.423 -19.807l-6.3505 6.3505-6.3681-6.3662zm-21.111 20.849a24.981 17.986 18 0 0 -15.088 5.4782l4.0769 8.0016-8.0211 4.0886a24.981 17.986 18 0 0 15.34 16.971l26.317-8.552-8.4407-2.744 0.92702-2.8513 8.4426 2.744-16.276-22.403a24.981 17.986 18 0 0 -7.2776 -0.7338zm54.122 4e-3a17.986 24.981 72 0 0 -6.4559 0.74551l-16.265 22.387 8.4427-2.744 0.92506 2.8513-8.4407 2.744 26.333 8.5558a17.986 24.981 72 0 0 6.4481 -3.7744 17.986 24.981 72 0 0 8.8584 -13.208l-8.0036-4.0769 4.0886-8.025a17.986 24.981 72 0 0 -15.931 -5.4548zm-22.725 28.829 5.2206 7.1858-2.4239 1.7623-5.2186-7.1819v27.689a24.981 17.986 54 0 0 20.882 9.3092l1.4052-8.8701 8.8935 1.4071a24.981 17.986 54 0 0 -2.4376 -22.746l-26.321-8.5558zm-7.8455 6e-3 -26.337 8.5578a17.986 24.981 36 0 0 -2.3966 22.732l8.8701-1.4032 1.411 8.8935a17.986 24.981 36 0 0 16.093 -4.9278 17.986 24.981 36 0 0 4.7854 -4.4204l2e-3 -27.674-5.2186 7.1839-2.4258-1.7623 5.2166-7.18z" fill="#ff8080"/>
  <path transform="translate(299.21 796.62)" d="m46.639 30.352a2.9977 2.9977 0 0 0 -2.9805 2.0684 2.9977 2.9977 0 0 0 1.9238 3.7773 2.9977 2.9977 0 0 0 3.7773 -1.9238 2.9977 2.9977 0 0 0 -1.9238 -3.7773 2.9977 2.9977 0 0 0 -0.79688 -0.14453zm12.658 9.3184a2.9977 2.9977 0 0 0 -0.88477 0.14648 2.9977 2.9977 0 0 0 -1.9238 3.7773 2.9977 2.9977 0 0 0 3.7773 1.9238 2.9977 2.9977 0 0 0 1.9238 -3.7773 2.9977 2.9977 0 0 0 -2.8926 -2.0703zm-25.744 0.001953a2.9977 2.9977 0 0 0 -2.2988 1.2344 2.9977 2.9977 0 0 0 0.66406 4.1855 2.9977 2.9977 0 0 0 4.1875 -0.66211 2.9977 2.9977 0 0 0 -0.66406 -4.1875 2.9977 2.9977 0 0 0 -1.8887 -0.57031zm4.9434 15.08a2.9977 2.9977 0 0 0 -1.6777 0.57227 2.9977 2.9977 0 0 0 -0.66406 4.1875 2.9977 2.9977 0 0 0 4.1875 0.66211 2.9977 2.9977 0 0 0 0.66406 -4.1875 2.9977 2.9977 0 0 0 -2.5098 -1.2344zm15.9 0a2.9977 2.9977 0 0 0 -0.88476 0.14648 2.9977 2.9977 0 0 0 -1.9238 3.7773 2.9977 2.9977 0 0 0 3.7773 1.9238 2.9977 2.9977 0 0 0 1.9238 -3.7773 2.9977 2.9977 0 0 0 -2.8926 -2.0703z" fill="#fc0"/>
 </g>
</svg>
