<svg width="100" height="100" xmlns="http://www.w3.org/2000/svg">

 <g>
  <title>background</title>
  <rect fill="none" id="canvas_background" height="102" width="102" y="-1" x="-1"/>
 </g>
 <g>
  <title>Layer 1</title>
  <g stroke="null" transform="rotate(-17.728004455566406 11.650367736816419,99.91676330566406) " id="svg_1">
   <path stroke="null" id="svg_2" fill="#ff8080" d="m0.847049,28.365254a30.567343,40.284549 0 0 0 -19.369288,31.984458l27.64249,36.101445l0,-14.310279l5.094614,0l0,14.316569l27.661185,-36.127247a30.567343,40.284549 0 0 0 -19.413475,-31.940918l-10.792723,10.240864l-10.822634,-10.266182l-0.00017,0.00129zm-35.878304,33.621255a42.455398,29.004359 18 0 0 -25.64217,8.834187l6.928722,12.903441l-13.63192,6.593307a42.455398,29.004359 18 0 0 26.070446,27.367563l44.72594,-13.79102l-14.345033,-4.424995l1.575477,-4.598028l14.348262,4.424995l-27.661185,-36.127247a42.455398,29.004359 18 0 0 -12.368336,-1.183331l-0.000204,0.001129zm91.980748,0.00645a30.567343,40.284549 72 0 0 -10.971851,1.202215l-27.64249,36.101445l14.348432,-4.424995l1.572146,4.598028l-14.345033,4.424995l44.753132,13.797148a30.567343,40.284549 72 0 0 10.958595,-6.086626a30.567343,40.284549 72 0 0 15.054918,-21.29932l-13.602179,-6.57444l6.948607,-12.941176a30.567343,40.284549 72 0 0 -27.074855,-8.796452l0.000578,-0.000822zm-38.621309,46.489863l8.872449,11.587875l-4.119436,2.841898l-8.86905,-11.581586l0,44.65149a42.455398,29.004359 54 0 0 35.489117,15.012086l2.388148,-14.30399l15.11457,2.2691a42.455398,29.004359 54 0 0 -4.14272,-36.680371l-44.732738,-13.797148l-0.00034,0.000645zm-13.333486,0.009676l-44.75993,13.800373a30.567343,40.284549 36 0 0 -4.07304,36.657795l15.074802,-2.262811l2.398005,14.341725a30.567343,40.284549 36 0 0 27.350175,-7.946607a30.567343,40.284549 36 0 0 8.132823,-7.12837l0.003399,-44.627301l-8.86905,11.584811l-4.122665,-2.841898l8.865651,-11.578522l-0.00017,0.000806z"/>
   <path stroke="null" id="svg_3" fill="#fc0" d="m11.875139,77.31111a5.094614,4.834114 0 0 0 -5.065382,3.335517a5.094614,4.834114 0 0 0 3.269513,6.091302a5.094614,4.834114 0 0 0 6.41955,-3.102334a5.094614,4.834114 0 0 0 -3.269513,-6.091302a5.094614,4.834114 0 0 0 -1.354304,-0.23307l0.000136,-0.000113zm21.512367,15.026922a5.094614,4.834114 0 0 0 -1.503673,0.236215a5.094614,4.834114 0 0 0 -3.269513,6.091302a5.094614,4.834114 0 0 0 6.41955,3.102334a5.094614,4.834114 0 0 0 3.269513,-6.091302a5.094614,4.834114 0 0 0 -4.915996,-3.338581l0.000119,0.000032zm-43.752122,0.003145a5.094614,4.834114 0 0 0 -3.906828,1.990603a5.094614,4.834114 0 0 0 1.128575,6.749569a5.094614,4.834114 0 0 0 7.116688,-1.067724a5.094614,4.834114 0 0 0 -1.128575,-6.752794a5.094614,4.834114 0 0 0 -3.20986,-0.919686l0,0.000032zm8.401346,24.318122a5.094614,4.834114 0 0 0 -2.851264,0.922847a5.094614,4.834114 0 0 0 -1.128575,6.752794a5.094614,4.834114 0 0 0 7.116688,1.067724a5.094614,4.834114 0 0 0 1.128575,-6.752794a5.094614,4.834114 0 0 0 -4.265424,-1.990603l0,0.000032zm27.02217,0a5.094614,4.834114 0 0 0 -1.503656,0.236215a5.094614,4.834114 0 0 0 -3.269513,6.091302a5.094614,4.834114 0 0 0 6.41955,3.102334a5.094614,4.834114 0 0 0 3.269513,-6.091302a5.094614,4.834114 0 0 0 -4.915996,-3.338581l0.000102,0.000032z"/>
  </g>
 </g>
</svg>